<svg width="577" height="124" viewBox="0 0 577 124" fill="none" xmlns="http://www.w3.org/2000/svg">
<path d="M82.4168 8.35526C100.929 8.11978 119.549 9.69564 137.753 5.98242C133.931 19.3138 128.569 32.1198 124.077 45.2338C122.266 50.4686 121.052 56.6995 115.763 59.6157C120.726 43.5312 127.519 28.0444 132.355 11.9055C111.09 15.9628 89.4085 12.9922 67.9262 14.4775C62.1952 14.852 56.7128 16.9573 52.2042 20.515C47.6956 24.0727 44.3731 28.9152 42.6763 34.4021C31.8084 28.8051 17.0461 24.947 6.44984 33.098C5.50795 42.6436 6.30493 52.2618 6.06946 61.8437C6.34116 80.9713 5.7072 100.171 6.63097 119.444C5.07323 120.766 3.47927 122.052 1.8853 123.32H1.30681H0V29.5296C10.8679 19.2957 27.3706 24.0957 39.5065 30.0912C42.1692 24.5123 45.1397 18.7704 50.3745 15.1658C59.5579 8.4096 71.5489 7.79375 82.4168 8.35526Z" fill="white"/>
<path d="M41.027 65.1953H51.895C52.0399 76.8059 51.6595 88.4165 52.0399 100.027C52.001 102.346 52.8828 104.586 54.492 106.256C56.1012 107.927 58.3067 108.891 60.6255 108.939C66.0595 109.283 71.6565 108.939 77.1811 109.084V117.688C69.809 117.579 62.3825 118.177 55.0467 117.217C51.3151 116.636 47.9007 114.779 45.3866 111.961C42.8726 109.143 41.4149 105.539 41.2625 101.766C40.7553 89.5939 41.0995 77.3855 41.027 65.1953Z" fill="white"/>
<path d="M126.377 65.9371C135.325 64.6148 144.49 65.3937 153.402 65.1945V74.2511C145.432 74.5047 137.281 73.2186 129.456 75.0662C122.718 77.765 122.211 86.2783 121.794 92.4911C121.794 98.4504 122.953 106.782 129.981 108.25C137.716 109.355 145.595 108.503 153.402 108.739V117.795C142.697 116.89 131.267 119.752 121.142 115.278C109.712 109.318 108.463 94.5198 110.636 83.2171C111.145 79.0604 112.933 75.1645 115.753 72.0686C118.573 68.9727 122.285 66.83 126.377 65.9371Z" fill="white"/>
<path d="M86.6906 117.778C86.6906 104.356 86.6906 90.9161 86.6906 77.4941C90.5662 78.4361 95.0945 78.4361 98.6091 77.4941C98.4461 90.8979 98.6091 104.32 98.5005 117.724L86.6906 117.778Z" fill="white"/>
<path fill-rule="evenodd" clip-rule="evenodd" d="M100.105 69.6983C98.0295 70.6557 95.7187 71.1898 93.2832 71.1898C88.3639 71.1898 83.9535 69.0108 80.9645 65.5654C80.6348 62.3368 81.054 58.8963 82.2715 55.7462C82.4356 55.7772 82.6049 55.7934 82.778 55.7934C83.1983 55.7934 83.5963 55.6979 83.9516 55.5275C86.1212 57.7561 89.2317 60.3642 92.964 62.132C93.3651 62.322 93.7735 62.5023 94.1889 62.6714L94.1889 62.676C94.1889 64.1765 95.4053 65.393 96.9059 65.393C97.0738 65.393 97.2382 65.3777 97.3977 65.3486C97.5487 65.7936 97.7142 66.2199 97.8956 66.6245C98.4548 67.872 99.1771 68.9378 100.105 69.6983ZM84.7652 54.9292C86.8668 57.0708 89.8461 59.5487 93.392 61.2282C93.7173 61.3823 94.0472 61.5296 94.3815 61.6693C94.707 60.8538 95.4162 60.233 96.286 60.03C96.2511 59.7298 96.2194 59.4271 96.1906 59.1226C95.7988 54.972 95.9515 50.3894 96.1795 46.6386C95.3228 46.4015 94.636 45.7553 94.3428 44.9234C90.8857 45.7886 88.1425 47.4974 86.0609 49.6852C85.5962 50.1736 85.1636 50.6867 84.7627 51.2209C85.2169 51.7065 85.4949 52.359 85.4949 53.0764C85.4949 53.7925 85.2179 54.4439 84.7652 54.9292ZM83.9572 50.6279C84.3826 50.0607 84.8421 49.5154 85.3364 48.9959C87.5818 46.636 90.5239 44.8296 94.1903 43.9309C94.2373 42.4715 95.4351 41.3029 96.9059 41.3029C98.1577 41.3029 99.2118 42.1495 99.5269 43.3014C101.318 43.2934 103.236 43.4686 105.282 43.8526C102.303 40.6147 98.0301 38.5859 93.2832 38.5859C84.2799 38.5859 76.9813 45.8846 76.9813 54.8879C76.9813 58.3294 78.0478 61.5219 79.8683 64.1528C79.7732 61.232 80.2504 58.2003 81.3399 55.382C80.5719 54.902 80.061 54.0488 80.061 53.0764C80.061 51.5758 81.2774 50.3594 82.778 50.3594C83.2005 50.3594 83.6005 50.4558 83.9572 50.6279ZM98.3318 64.9892C98.4766 65.4198 98.6351 65.8295 98.8081 66.2154C99.406 67.5492 100.161 68.5646 101.104 69.195C103.66 67.7948 105.8 65.7295 107.291 63.2319C104.502 64.1878 101.8 64.3716 99.2571 64.0384C99.0318 64.4265 98.7131 64.7536 98.3318 64.9892ZM99.5941 63.0732C102.254 63.3889 105.085 63.1001 108.008 61.8919C109.019 59.77 109.585 57.395 109.585 54.8879C109.585 51.2079 108.366 47.8127 106.309 45.0843C103.89 44.5439 101.658 44.2974 99.6086 44.3004C99.4773 45.5803 98.4576 46.5969 97.1763 46.7235C96.9505 50.4473 96.8018 54.9571 97.1862 59.0286C97.2166 59.3511 97.2504 59.6702 97.2876 59.9856C98.6074 60.1712 99.6229 61.305 99.6229 62.676C99.6229 62.8109 99.613 62.9435 99.5941 63.0732Z" fill="white"/>
<path d="M38.0378 117.379C38.0378 117.379 35.6574 111.039 25.3585 111.039C15.0597 111.039 9.96228 117.379 9.96228 117.379C9.96228 117.379 17.2076 113.371 25.3585 113.756C33.5095 114.141 38.0378 117.379 38.0378 117.379Z" fill="white"/>
<path d="M20.2836 54.011L23.3172 43.8223H26.2713L21.7872 56.6997H19.8414L20.2836 54.011ZM17.4888 43.8223L20.5136 54.011L20.9735 56.6997H19.01L14.5525 43.8223H17.4888Z" fill="white"/>
<path d="M39.5849 43.8223V56.6997H36.9315L31.7576 48.0676V56.6997H29.1043V43.8223H31.7576L36.9404 52.4632V43.8223H39.5849Z" fill="white"/>
<path d="M50.6343 43.8223H53.2788V52.3305C53.2788 53.3211 53.0665 54.1554 52.642 54.8335C52.2233 55.5116 51.6425 56.0216 50.8996 56.3636C50.1626 56.7055 49.3135 56.8765 48.3524 56.8765C47.3914 56.8765 46.5364 56.7055 45.7876 56.3636C45.0447 56.0216 44.4609 55.5116 44.0364 54.8335C43.6178 54.1554 43.4084 53.3211 43.4084 52.3305V43.8223H46.0618V52.3305C46.0618 52.9084 46.1531 53.3801 46.3359 53.7456C46.5187 54.1112 46.7811 54.3795 47.1231 54.5505C47.471 54.7215 47.8807 54.807 48.3524 54.807C48.8359 54.807 49.2457 54.7215 49.5818 54.5505C49.9238 54.3795 50.1832 54.1112 50.3601 53.7456C50.5429 53.3801 50.6343 52.9084 50.6343 52.3305V43.8223Z" fill="white"/>
<path d="M191.981 29.5295H187.305L187.335 26.5375H191.981C193.334 26.5375 194.467 26.2418 195.379 25.6504C196.301 25.059 196.993 24.212 197.454 23.1094C197.925 22.0068 198.16 20.6937 198.16 19.1701V17.9824C198.16 16.7996 198.025 15.7521 197.755 14.8399C197.494 13.9278 197.103 13.161 196.582 12.5395C196.071 11.9181 195.439 11.447 194.687 11.1262C193.946 10.8054 193.089 10.6451 192.116 10.6451H187.215V7.63799H192.116C193.57 7.63799 194.898 7.88357 196.101 8.37472C197.303 8.85586 198.341 9.5525 199.213 10.4646C200.095 11.3768 200.772 12.4694 201.243 13.7424C201.714 15.0154 201.949 16.4387 201.949 18.0124V19.1701C201.949 20.7439 201.714 22.1672 201.243 23.4402C200.772 24.7132 200.095 25.8058 199.213 26.7179C198.331 27.62 197.278 28.3167 196.056 28.8078C194.843 29.289 193.484 29.5295 191.981 29.5295ZM189.395 7.63799V29.5295H185.621V7.63799H189.395ZM193.394 17.2005V19.6964H183.29V17.2005H193.394Z" fill="white"/>
<path d="M214.241 10.5549L207.7 29.5295H203.746L211.985 7.63799H214.511L214.241 10.5549ZM219.713 29.5295L213.158 10.5549L212.872 7.63799H215.413L223.683 29.5295H219.713ZM219.398 21.4104V24.4025H207.49V21.4104H219.398ZM211.79 33.0929C211.79 32.5717 211.97 32.1357 212.331 31.7849C212.702 31.434 213.208 31.2586 213.85 31.2586C214.491 31.2586 214.997 31.434 215.368 31.7849C215.739 32.1357 215.925 32.5717 215.925 33.0929C215.925 33.6041 215.739 34.0352 215.368 34.386C214.997 34.7368 214.491 34.9122 213.85 34.9122C213.208 34.9122 212.702 34.7368 212.331 34.386C211.97 34.0352 211.79 33.6041 211.79 33.0929Z" fill="white"/>
<path d="M230.471 7.63799V29.5295H226.697V7.63799H230.471Z" fill="white"/>
<path d="M257.91 16.7795V19.7716H246.288V16.7795H257.91ZM247.22 7.63799V29.5295H243.446V7.63799H247.22ZM260.812 7.63799V29.5295H257.053V7.63799H260.812Z" fill="white"/>
<path d="M283.071 17.9824V19.1852C283.071 20.8391 282.856 22.3226 282.425 23.6357C281.994 24.9488 281.377 26.0664 280.576 26.9886C279.784 27.9107 278.831 28.6174 277.719 29.1086C276.606 29.5897 275.373 29.8303 274.02 29.8303C272.677 29.8303 271.449 29.5897 270.336 29.1086C269.234 28.6174 268.277 27.9107 267.465 26.9886C266.653 26.0664 266.021 24.9488 265.57 23.6357C265.129 22.3226 264.909 20.8391 264.909 19.1852V17.9824C264.909 16.3285 265.129 14.85 265.57 13.5469C266.011 12.2338 266.633 11.1162 267.435 10.194C268.247 9.26181 269.204 8.55515 270.306 8.07402C271.419 7.58286 272.647 7.33728 273.99 7.33728C275.343 7.33728 276.576 7.58286 277.689 8.07402C278.801 8.55515 279.759 9.26181 280.561 10.194C281.362 11.1162 281.979 12.2338 282.41 13.5469C282.851 14.85 283.071 16.3285 283.071 17.9824ZM279.298 19.1852V17.9523C279.298 16.7294 279.177 15.6519 278.937 14.7197C278.706 13.7774 278.36 12.9906 277.899 12.3591C277.448 11.7176 276.892 11.2365 276.23 10.9157C275.569 10.5849 274.822 10.4195 273.99 10.4195C273.158 10.4195 272.416 10.5849 271.765 10.9157C271.113 11.2365 270.557 11.7176 270.096 12.3591C269.645 12.9906 269.299 13.7774 269.058 14.7197C268.818 15.6519 268.698 16.7294 268.698 17.9523V19.1852C268.698 20.4081 268.818 21.4906 269.058 22.4328C269.299 23.3751 269.65 24.1719 270.111 24.8235C270.582 25.465 271.143 25.9511 271.795 26.2819C272.446 26.6027 273.188 26.763 274.02 26.763C274.862 26.763 275.609 26.6027 276.26 26.2819C276.912 25.9511 277.463 25.465 277.914 24.8235C278.365 24.1719 278.706 23.3751 278.937 22.4328C279.177 21.4906 279.298 20.4081 279.298 19.1852ZM271.945 33.138C271.945 32.6168 272.126 32.1808 272.487 31.83C272.857 31.4791 273.364 31.3037 274.005 31.3037C274.647 31.3037 275.153 31.4791 275.524 31.83C275.895 32.1808 276.08 32.6168 276.08 33.138C276.08 33.6492 275.895 34.0803 275.524 34.4311C275.153 34.7819 274.647 34.9573 274.005 34.9573C273.364 34.9573 272.857 34.7819 272.487 34.4311C272.126 34.0803 271.945 33.6492 271.945 33.138Z" fill="white"/>
<path d="M300.084 22.4028H303.843C303.722 23.8361 303.321 25.1141 302.64 26.2368C301.958 27.3494 301.001 28.2265 299.768 28.868C298.535 29.5095 297.037 29.8303 295.272 29.8303C293.919 29.8303 292.701 29.5897 291.619 29.1086C290.536 28.6174 289.609 27.9258 288.837 27.0337C288.065 26.1315 287.474 25.044 287.063 23.771C286.662 22.498 286.462 21.0746 286.462 19.5009V17.6816C286.462 16.1079 286.667 14.6846 287.078 13.4116C287.499 12.1386 288.101 11.051 288.882 10.1489C289.664 9.23675 290.601 8.54011 291.694 8.05898C292.797 7.57785 294.034 7.33728 295.408 7.33728C297.152 7.33728 298.625 7.65804 299.828 8.29955C301.031 8.94106 301.963 9.82815 302.625 10.9608C303.296 12.0935 303.707 13.3915 303.858 14.855H300.099C299.999 13.9128 299.778 13.1059 299.437 12.4343C299.106 11.7627 298.615 11.2515 297.964 10.9007C297.312 10.5398 296.46 10.3594 295.408 10.3594C294.546 10.3594 293.794 10.5198 293.152 10.8405C292.511 11.1613 291.975 11.6324 291.544 12.2539C291.113 12.8753 290.787 13.6421 290.566 14.5543C290.356 15.4564 290.251 16.4888 290.251 17.6516V19.5009C290.251 20.6035 290.346 21.6059 290.536 22.508C290.737 23.4001 291.037 24.1669 291.438 24.8084C291.849 25.4499 292.371 25.9461 293.002 26.2969C293.634 26.6478 294.39 26.8232 295.272 26.8232C296.345 26.8232 297.212 26.6528 297.874 26.312C298.545 25.9712 299.051 25.475 299.392 24.8235C299.743 24.1619 299.973 23.355 300.084 22.4028Z" fill="white"/>
<path d="M327.147 26.6127L332.905 31.1834L330.455 33.3335L324.801 28.8078L327.147 26.6127ZM332.951 17.9824V19.1852C332.951 20.8391 332.735 22.3226 332.304 23.6357C331.873 24.9488 331.257 26.0664 330.455 26.9886C329.653 27.9107 328.696 28.6174 327.583 29.1086C326.47 29.5897 325.237 29.8303 323.884 29.8303C322.541 29.8303 321.313 29.5897 320.201 29.1086C319.098 28.6174 318.141 27.9107 317.329 26.9886C316.517 26.0664 315.885 24.9488 315.434 23.6357C314.993 22.3226 314.773 20.8391 314.773 19.1852V17.9824C314.773 16.3285 314.993 14.85 315.434 13.5469C315.875 12.2338 316.497 11.1162 317.299 10.194C318.111 9.26181 319.068 8.55515 320.17 8.07402C321.283 7.58286 322.511 7.33728 323.854 7.33728C325.207 7.33728 326.44 7.58286 327.553 8.07402C328.675 8.55515 329.638 9.26181 330.44 10.194C331.242 11.1162 331.858 12.2338 332.289 13.5469C332.73 14.85 332.951 16.3285 332.951 17.9824ZM329.162 19.1852V17.9523C329.162 16.7294 329.041 15.6519 328.801 14.7197C328.57 13.7774 328.224 12.9906 327.763 12.3591C327.312 11.7176 326.756 11.2365 326.094 10.9157C325.443 10.5849 324.696 10.4195 323.854 10.4195C323.032 10.4195 322.295 10.5849 321.644 10.9157C320.992 11.2365 320.436 11.7176 319.975 12.3591C319.514 12.9906 319.163 13.7774 318.922 14.7197C318.682 15.6519 318.562 16.7294 318.562 17.9523V19.1852C318.562 20.4081 318.682 21.4906 318.922 22.4328C319.163 23.3751 319.514 24.1719 319.975 24.8235C320.446 25.465 321.007 25.9511 321.659 26.2819C322.32 26.6027 323.062 26.763 323.884 26.763C324.726 26.763 325.473 26.6027 326.124 26.2819C326.776 25.9511 327.327 25.465 327.778 24.8235C328.229 24.1719 328.57 23.3751 328.801 22.4328C329.041 21.4906 329.162 20.4081 329.162 19.1852Z" fill="white"/>
<path d="M349.376 7.63799H353.135V22.2674C353.135 23.9314 352.774 25.3246 352.053 26.4473C351.331 27.5699 350.349 28.4169 349.106 28.9883C347.873 29.5496 346.495 29.8303 344.971 29.8303C343.397 29.8303 341.994 29.5496 340.761 28.9883C339.528 28.4169 338.556 27.5699 337.844 26.4473C337.143 25.3246 336.792 23.9314 336.792 22.2674V7.63799H340.551V22.2674C340.551 23.3199 340.731 24.187 341.092 24.8686C341.453 25.5401 341.964 26.0363 342.626 26.3571C343.287 26.6778 344.069 26.8382 344.971 26.8382C345.873 26.8382 346.65 26.6778 347.302 26.3571C347.963 26.0363 348.474 25.5401 348.835 24.8686C349.196 24.187 349.376 23.3199 349.376 22.2674V7.63799Z" fill="white"/>
<path d="M375.004 17.9824V19.1852C375.004 20.8391 374.788 22.3226 374.357 23.6357C373.926 24.9488 373.31 26.0664 372.508 26.9886C371.716 27.9107 370.764 28.6174 369.651 29.1086C368.539 29.5897 367.306 29.8303 365.953 29.8303C364.609 29.8303 363.382 29.5897 362.269 29.1086C361.166 28.6174 360.209 27.9107 359.397 26.9886C358.585 26.0664 357.954 24.9488 357.503 23.6357C357.062 22.3226 356.841 20.8391 356.841 19.1852V17.9824C356.841 16.3285 357.062 14.85 357.503 13.5469C357.944 12.2338 358.565 11.1162 359.367 10.194C360.179 9.26181 361.136 8.55515 362.239 8.07402C363.352 7.58286 364.579 7.33728 365.923 7.33728C367.276 7.33728 368.509 7.58286 369.621 8.07402C370.734 8.55515 371.691 9.26181 372.493 10.194C373.295 11.1162 373.911 12.2338 374.342 13.5469C374.783 14.85 375.004 16.3285 375.004 17.9824ZM371.23 19.1852V17.9523C371.23 16.7294 371.11 15.6519 370.869 14.7197C370.639 13.7774 370.293 12.9906 369.832 12.3591C369.381 11.7176 368.824 11.2365 368.163 10.9157C367.501 10.5849 366.755 10.4195 365.923 10.4195C365.091 10.4195 364.349 10.5849 363.697 10.9157C363.046 11.2365 362.489 11.7176 362.028 12.3591C361.577 12.9906 361.232 13.7774 360.991 14.7197C360.75 15.6519 360.63 16.7294 360.63 17.9523V19.1852C360.63 20.4081 360.75 21.4906 360.991 22.4328C361.232 23.3751 361.582 24.1719 362.043 24.8235C362.515 25.465 363.076 25.9511 363.727 26.2819C364.379 26.6027 365.121 26.763 365.953 26.763C366.795 26.763 367.541 26.6027 368.193 26.2819C368.844 25.9511 369.396 25.465 369.847 24.8235C370.298 24.1719 370.639 23.3751 370.869 22.4328C371.11 21.4906 371.23 20.4081 371.23 19.1852ZM360.435 6.29984L364.735 2.60113H367.095L371.41 6.29984H368.328L365.908 4.16481L363.502 6.29984H360.435ZM370.298 3.96935L372.613 0H375.846L372.613 3.96935H370.298Z" fill="white"/>
<path d="M392.016 22.4028H395.775C395.655 23.8361 395.254 25.1141 394.572 26.2368C393.891 27.3494 392.933 28.2265 391.7 28.868C390.468 29.5095 388.969 29.8303 387.205 29.8303C385.852 29.8303 384.634 29.5897 383.551 29.1086C382.469 28.6174 381.542 27.9258 380.77 27.0337C379.998 26.1315 379.407 25.044 378.996 23.771C378.595 22.498 378.394 21.0746 378.394 19.5009V17.6816C378.394 16.1079 378.6 14.6846 379.011 13.4116C379.432 12.1386 380.033 11.051 380.815 10.1489C381.597 9.23675 382.534 8.54011 383.626 8.05898C384.729 7.57785 385.967 7.33728 387.34 7.33728C389.084 7.33728 390.558 7.65804 391.761 8.29955C392.963 8.94106 393.896 9.82815 394.557 10.9608C395.229 12.0935 395.64 13.3915 395.79 14.855H392.031C391.931 13.9128 391.711 13.1059 391.37 12.4343C391.039 11.7627 390.548 11.2515 389.896 10.9007C389.245 10.5398 388.393 10.3594 387.34 10.3594C386.478 10.3594 385.726 10.5198 385.085 10.8405C384.443 11.1613 383.907 11.6324 383.476 12.2539C383.045 12.8753 382.719 13.6421 382.499 14.5543C382.288 15.4564 382.183 16.4888 382.183 17.6516V19.5009C382.183 20.6035 382.278 21.6059 382.469 22.508C382.669 23.4001 382.97 24.1669 383.371 24.8084C383.782 25.4499 384.303 25.9461 384.935 26.2969C385.566 26.6478 386.323 26.8232 387.205 26.8232C388.277 26.8232 389.144 26.6528 389.806 26.312C390.478 25.9712 390.984 25.475 391.325 24.8235C391.675 24.1619 391.906 23.355 392.016 22.4028Z" fill="white"/>
<path d="M424.297 18.3432V26.7029C423.986 27.1139 423.5 27.5649 422.838 28.0561C422.187 28.5372 421.32 28.9532 420.237 29.304C419.155 29.6548 417.806 29.8303 416.193 29.8303C414.819 29.8303 413.561 29.5997 412.419 29.1386C411.276 28.6675 410.289 27.9809 409.457 27.0788C408.635 26.1766 407.998 25.0791 407.547 23.786C407.096 22.483 406.871 20.9995 406.871 19.3355V17.817C406.871 16.1631 407.076 14.6896 407.487 13.3966C407.908 12.0935 408.509 10.9909 409.291 10.0888C410.073 9.18664 411.015 8.50503 412.118 8.04394C413.231 7.57283 414.489 7.33728 415.892 7.33728C417.686 7.33728 419.17 7.63799 420.342 8.2394C421.525 8.8308 422.437 9.65273 423.079 10.7052C423.72 11.7577 424.126 12.9605 424.297 14.3137H420.598C420.478 13.5519 420.242 12.8703 419.891 12.2689C419.55 11.6675 419.059 11.1964 418.418 10.8556C417.786 10.5047 416.964 10.3293 415.952 10.3293C415.08 10.3293 414.313 10.4947 413.652 10.8255C412.99 11.1563 412.439 11.6424 411.998 12.2839C411.567 12.9254 411.241 13.7073 411.02 14.6295C410.8 15.5516 410.69 16.6041 410.69 17.7869V19.3355C410.69 20.5384 410.815 21.6059 411.065 22.5381C411.326 23.4703 411.697 24.2571 412.178 24.8986C412.669 25.5401 413.266 26.0263 413.967 26.3571C414.669 26.6778 415.461 26.8382 416.343 26.8382C417.205 26.8382 417.912 26.768 418.463 26.6277C419.014 26.4774 419.45 26.3019 419.771 26.1015C420.102 25.891 420.357 25.6905 420.538 25.5001V21.1548H415.982V18.3432H424.297Z" fill="white"/>
<path d="M432.814 7.63799V29.5295H429.04V7.63799H432.814Z" fill="white"/>
<path d="M446.609 10.5549L440.068 29.5295H436.114L444.353 7.63799H446.879L446.609 10.5549ZM452.081 29.5295L445.526 10.5549L445.24 7.63799H447.781L456.051 29.5295H452.081ZM451.766 21.4104V24.4025H439.858V21.4104H451.766Z" fill="white"/>
<path d="M481.25 16.7795V19.7716H469.627V16.7795H481.25ZM470.559 7.63799V29.5295H466.786V7.63799H470.559ZM484.151 7.63799V29.5295H480.393V7.63799H484.151Z" fill="white"/>
<path d="M497.751 10.5549L491.21 29.5295H487.256L495.495 7.63799H498.021L497.751 10.5549ZM503.224 29.5295L496.668 10.5549L496.382 7.63799H498.923L507.193 29.5295H503.224ZM502.908 21.4104V24.4025H491V21.4104H502.908ZM496.202 1.75914L499.134 6.2848H496.112L492.097 1.75914H496.202Z" fill="white"/>
<path d="M535.293 7.63799V29.5295H531.52L521.701 13.8476V29.5295H517.928V7.63799H521.701L531.55 23.35V7.63799H535.293Z" fill="white"/>
<path d="M557.553 17.9824V19.1852C557.553 20.8391 557.338 22.3226 556.907 23.6357C556.476 24.9488 555.859 26.0664 555.057 26.9886C554.265 27.9107 553.313 28.6174 552.2 29.1086C551.088 29.5897 549.855 29.8303 548.502 29.8303C547.159 29.8303 545.931 29.5897 544.818 29.1086C543.716 28.6174 542.758 27.9107 541.946 26.9886C541.134 26.0664 540.503 24.9488 540.052 23.6357C539.611 22.3226 539.39 20.8391 539.39 19.1852V17.9824C539.39 16.3285 539.611 14.85 540.052 13.5469C540.493 12.2338 541.114 11.1162 541.916 10.194C542.728 9.26181 543.685 8.55515 544.788 8.07402C545.901 7.58286 547.129 7.33728 548.472 7.33728C549.825 7.33728 551.058 7.58286 552.17 8.07402C553.283 8.55515 554.24 9.26181 555.042 10.194C555.844 11.1162 556.461 12.2338 556.892 13.5469C557.333 14.85 557.553 16.3285 557.553 17.9824ZM553.779 19.1852V17.9523C553.779 16.7294 553.659 15.6519 553.418 14.7197C553.188 13.7774 552.842 12.9906 552.381 12.3591C551.93 11.7176 551.374 11.2365 550.712 10.9157C550.05 10.5849 549.304 10.4195 548.472 10.4195C547.64 10.4195 546.898 10.5849 546.246 10.9157C545.595 11.2365 545.039 11.7176 544.578 12.3591C544.126 12.9906 543.781 13.7774 543.54 14.7197C543.3 15.6519 543.179 16.7294 543.179 17.9523V19.1852C543.179 20.4081 543.3 21.4906 543.54 22.4328C543.781 23.3751 544.131 24.1719 544.593 24.8235C545.064 25.465 545.625 25.9511 546.277 26.2819C546.928 26.6027 547.67 26.763 548.502 26.763C549.344 26.763 550.091 26.6027 550.742 26.2819C551.394 25.9511 551.945 25.465 552.396 24.8235C552.847 24.1719 553.188 23.3751 553.418 22.4328C553.659 21.4906 553.779 20.4081 553.779 19.1852ZM549.554 1.74411L553.719 5.89388V6.05927H550.787L548.487 3.69871L546.186 6.05927H543.315V5.86381L547.419 1.74411H549.554ZM546.427 33.138C546.427 32.6168 546.607 32.1808 546.968 31.83C547.339 31.4791 547.845 31.3037 548.487 31.3037C549.128 31.3037 549.634 31.4791 550.005 31.83C550.376 32.1808 550.562 32.6168 550.562 33.138C550.562 33.6492 550.376 34.0803 550.005 34.4311C549.634 34.7819 549.128 34.9573 548.487 34.9573C547.845 34.9573 547.339 34.7819 546.968 34.4311C546.607 34.0803 546.427 33.6492 546.427 33.138Z" fill="white"/>
<path d="M565.664 7.63799V29.5295H561.891V7.63799H565.664Z" fill="white"/>
<path d="M292.657 46.7236V71.1906H286.759V46.7236H292.657ZM300.017 46.7236V51.2776H279.567V46.7236H300.017Z" fill="white"/>
<path d="M302.005 46.7236H311.634C313.516 46.7236 315.152 47.0037 316.541 47.5638C317.93 48.1239 319 48.953 319.75 50.0508C320.512 51.1487 320.893 52.5043 320.893 54.1175C320.893 55.5178 320.675 56.6885 320.238 57.6296C319.801 58.5706 319.19 59.3492 318.406 59.9654C317.633 60.5703 316.731 61.0688 315.701 61.4609L313.768 62.5532H305.685L305.652 57.9993H311.634C312.385 57.9993 313.006 57.8648 313.499 57.596C313.992 57.3271 314.362 56.9462 314.608 56.4533C314.866 55.9491 314.995 55.3498 314.995 54.6552C314.995 53.9494 314.866 53.3445 314.608 52.8404C314.351 52.3362 313.97 51.9497 313.466 51.6809C312.973 51.412 312.362 51.2776 311.634 51.2776H307.903V71.1906H302.005V46.7236ZM315.398 71.1906L309.987 60.3687L316.238 60.3351L321.716 70.9386V71.1906H315.398Z" fill="white"/>
<path d="M337.215 46.7236H343.113V62.7045C343.113 64.6089 342.715 66.2222 341.92 67.5441C341.125 68.8548 340.01 69.8463 338.576 70.5185C337.142 71.1906 335.456 71.5267 333.518 71.5267C331.602 71.5267 329.916 71.1906 328.46 70.5185C327.015 69.8463 325.883 68.8548 325.065 67.5441C324.259 66.2222 323.855 64.6089 323.855 62.7045V46.7236H329.77V62.7045C329.77 63.7127 329.916 64.5361 330.207 65.1747C330.499 65.8021 330.924 66.2614 331.484 66.5526C332.045 66.8439 332.722 66.9896 333.518 66.9896C334.324 66.9896 335.002 66.8439 335.551 66.5526C336.1 66.2614 336.515 65.8021 336.795 65.1747C337.075 64.5361 337.215 63.7127 337.215 62.7045V46.7236Z" fill="white"/>
<path d="M366.745 46.7236V71.1906H360.863L352.209 55.9659V71.1906H346.311V46.7236H352.209L360.863 61.9483V46.7236H366.745Z" fill="white"/>
<path d="M389.973 58.1169V68.1659C389.558 68.6252 388.92 69.1181 388.057 69.6446C387.206 70.16 386.13 70.6025 384.831 70.9722C383.531 71.3419 382.002 71.5267 380.243 71.5267C378.619 71.5267 377.146 71.269 375.824 70.7537C374.502 70.2272 373.365 69.4598 372.412 68.4515C371.471 67.4321 370.743 66.1886 370.228 64.721C369.724 63.2422 369.472 61.5506 369.472 59.6461V58.2849C369.472 56.3805 369.729 54.6888 370.245 53.21C370.76 51.7313 371.482 50.4878 372.412 49.4795C373.353 48.46 374.457 47.687 375.723 47.1605C377 46.634 378.4 46.3707 379.924 46.3707C382.176 46.3707 384.007 46.7292 385.419 47.4462C386.83 48.152 387.9 49.1322 388.628 50.3869C389.357 51.6304 389.799 53.07 389.956 54.7056H384.293C384.181 53.899 383.968 53.2156 383.654 52.6555C383.352 52.0842 382.915 51.6528 382.344 51.3616C381.772 51.0591 381.033 50.9079 380.125 50.9079C379.42 50.9079 378.776 51.0591 378.193 51.3616C377.622 51.6641 377.134 52.1234 376.731 52.7395C376.328 53.3445 376.014 54.1063 375.79 55.0249C375.577 55.9435 375.471 57.019 375.471 58.2513V59.6461C375.471 60.8672 375.572 61.9371 375.773 62.8557C375.986 63.7743 376.3 64.5417 376.714 65.1579C377.14 65.7628 377.678 66.2222 378.327 66.5358C378.988 66.8383 379.767 66.9896 380.663 66.9896C381.291 66.9896 381.828 66.9391 382.276 66.8383C382.725 66.7263 383.094 66.5919 383.386 66.435C383.688 66.267 383.918 66.1101 384.075 65.9645V62.1667H379.974V58.1169H389.973Z" fill="white"/>
<path d="M411.794 46.7236V71.1906H405.896V46.7236H411.794ZM419.154 46.7236V51.2776H398.704V46.7236H419.154Z" fill="white"/>
<path d="M429.46 51.8657L423.495 71.1906H417.159L426.15 46.7236H430.166L429.46 51.8657ZM434.401 71.1906L428.418 51.8657L427.645 46.7236H431.712L440.753 71.1906H434.401ZM434.165 62.0659V66.6199H421.613V62.0659H434.165ZM430.603 40.1699L436.115 44.8919V45.1104H431.662L428.973 42.825L426.318 45.1104H421.949V44.8247L427.36 40.1699H430.603Z" fill="white"/>
<path d="M444.958 46.7236H449.764L455.226 63.7463L460.687 46.7236H465.493L457.175 71.1906H453.277L444.958 46.7236ZM442.034 46.7236H447.009L447.933 65.4772V71.1906H442.034V46.7236ZM463.443 46.7236H468.434V71.1906H462.519V65.4772L463.443 46.7236Z" fill="white"/>
<path d="M185.789 92.0054V116.472H179.891V92.0054H185.789ZM193.149 92.0054V96.5594H172.698V92.0054H193.149Z" fill="white"/>
<path d="M211.175 101.718V106.255H198.622V101.718H211.175ZM200.588 92.0054V116.472H194.69V92.0054H200.588ZM215.14 92.0054V116.472H209.259V92.0054H215.14Z" fill="white"/>
<path d="M240.257 90.6443H243.702C243.702 92.3359 243.495 93.7811 243.08 94.9798C242.677 96.1785 241.954 97.0971 240.912 97.7357C239.87 98.363 238.403 98.6767 236.51 98.6767V95.9208C237.731 95.9208 238.599 95.7079 239.114 95.2822C239.641 94.8565 239.96 94.2516 240.072 93.4674C240.195 92.672 240.257 91.7309 240.257 90.6443ZM231.199 92.0054H237.098V107.986C237.098 109.891 236.7 111.504 235.905 112.826C235.109 114.137 233.995 115.128 232.561 115.8C231.127 116.472 229.441 116.809 227.502 116.809C225.587 116.809 223.901 116.472 222.444 115.8C220.999 115.128 219.868 114.137 219.05 112.826C218.243 111.504 217.84 109.891 217.84 107.986V92.0054H223.755V107.986C223.755 108.995 223.901 109.818 224.192 110.457C224.483 111.084 224.909 111.543 225.469 111.834C226.029 112.126 226.707 112.271 227.502 112.271C228.309 112.271 228.987 112.126 229.536 111.834C230.085 111.543 230.499 111.084 230.779 110.457C231.059 109.818 231.199 108.995 231.199 107.986V92.0054Z" fill="white"/>
<path d="M258.629 110.709L263.721 92.0054H270.325L262.074 116.472H257.806L258.629 110.709ZM254.008 92.0054L259.1 110.709L259.957 116.472H255.638L247.438 92.0054H254.008Z" fill="white"/>
<path d="M277.427 92.0054V116.472H271.546V92.0054H277.427Z" fill="white"/>
<path d="M297.452 111.935V116.472H284.412V111.935H297.452ZM286.513 92.0054V116.472H280.615V92.0054H286.513ZM295.772 101.718V106.104H284.412V101.718H295.772ZM297.503 92.0054V96.5594H284.412V92.0054H297.503ZM291.201 85.4517L296.713 90.1737V90.3922H292.26L289.571 88.1068L286.916 90.3922H282.547V90.1065L287.958 85.4517H291.201ZM286.53 120.169C286.53 119.452 286.821 118.853 287.403 118.371C287.986 117.901 288.742 117.666 289.672 117.666C290.602 117.666 291.358 117.901 291.941 118.371C292.523 118.853 292.814 119.452 292.814 120.169C292.814 120.886 292.523 121.48 291.941 121.951C291.358 122.432 290.602 122.673 289.672 122.673C288.742 122.673 287.986 122.432 287.403 121.951C286.821 121.48 286.53 120.886 286.53 120.169Z" fill="white"/>
<path d="M319.343 92.0054V116.472H313.461L304.807 101.248V116.472H298.909V92.0054H304.807L313.461 107.23V92.0054H319.343Z" fill="white"/>
<path d="M338.975 110.709L344.067 92.0054H350.671L342.42 116.472H338.152L338.975 110.709ZM334.354 92.0054L339.446 110.709L340.303 116.472H335.984L327.784 92.0054H334.354Z" fill="white"/>
<path d="M360.597 97.1475L354.631 116.472H348.296L357.286 92.0054H361.302L360.597 97.1475ZM365.537 116.472L359.555 97.1475L358.782 92.0054H362.848L371.889 116.472H365.537ZM365.302 107.348V111.902H352.749V107.348H365.302ZM359.454 85.4517L362.798 90.7283H358.21L353.472 85.4517H359.454Z" fill="white"/>
<path d="M391.169 92.0054V116.472H385.271V92.0054H391.169ZM398.529 92.0054V96.5594H378.078V92.0054H398.529Z" fill="white"/>
<path d="M400.069 92.0054H409.698C411.58 92.0054 413.216 92.2855 414.605 92.8456C415.994 93.4058 417.064 94.2348 417.815 95.3326C418.576 96.4305 418.957 97.7861 418.957 99.3993C418.957 100.8 418.739 101.97 418.302 102.911C417.865 103.852 417.254 104.631 416.47 105.247C415.697 105.852 414.795 106.351 413.765 106.743L411.832 107.835H403.749L403.716 103.281H409.698C410.449 103.281 411.071 103.147 411.563 102.878C412.056 102.609 412.426 102.228 412.673 101.735C412.93 101.231 413.059 100.632 413.059 99.937C413.059 99.2312 412.93 98.6263 412.673 98.1222C412.415 97.618 412.034 97.2315 411.53 96.9627C411.037 96.6938 410.426 96.5594 409.698 96.5594H405.968V116.472H400.069V92.0054ZM413.462 116.472L408.051 105.65L414.303 105.617L419.781 116.22V116.472H413.462Z" fill="white"/>
<path d="M427.824 92.0054V116.472H421.943V92.0054H427.824Z" fill="white"/>
<path d="M449.457 92.0054V116.472H443.558V92.0054H449.457ZM456.817 92.0054V96.5594H436.366V92.0054H456.817Z" fill="white"/>
<path d="M474.842 101.718V106.255H462.289V101.718H474.842ZM464.255 92.0054V116.472H458.357V92.0054H464.255ZM478.808 92.0054V116.472H472.926V92.0054H478.808Z" fill="white"/>
<path d="M503.924 90.6443H507.369C507.369 92.3359 507.162 93.7811 506.748 94.9798C506.344 96.1785 505.622 97.0971 504.58 97.7357C503.538 98.363 502.07 98.6767 500.177 98.6767V95.9208C501.398 95.9208 502.266 95.7079 502.782 95.2822C503.308 94.8565 503.628 94.2516 503.74 93.4674C503.863 92.672 503.924 91.7309 503.924 90.6443ZM494.867 92.0054H500.765V107.986C500.765 109.891 500.368 111.504 499.572 112.826C498.777 114.137 497.662 115.128 496.228 115.8C494.794 116.472 493.108 116.809 491.17 116.809C489.254 116.809 487.568 116.472 486.112 115.8C484.667 115.128 483.535 114.137 482.717 112.826C481.911 111.504 481.508 109.891 481.508 107.986V92.0054H487.423V107.986C487.423 108.995 487.568 109.818 487.86 110.457C488.151 111.084 488.577 111.543 489.137 111.834C489.697 112.126 490.375 112.271 491.17 112.271C491.977 112.271 492.654 112.126 493.203 111.834C493.752 111.543 494.167 111.084 494.447 110.457C494.727 109.818 494.867 108.995 494.867 107.986V92.0054ZM489.338 90.5266L492.666 85.2501H498.648L493.96 90.5266H489.338Z" fill="white"/>
<path d="M519.345 108.188H525.227C525.148 109.891 524.689 111.392 523.849 112.691C523.008 113.991 521.843 115.005 520.353 115.733C518.875 116.45 517.127 116.809 515.11 116.809C513.475 116.809 512.013 116.534 510.724 115.985C509.447 115.436 508.361 114.646 507.464 113.616C506.579 112.585 505.902 111.336 505.431 109.868C504.972 108.401 504.742 106.748 504.742 104.911V103.584C504.742 101.746 504.983 100.094 505.465 98.6263C505.958 97.1475 506.652 95.8928 507.548 94.8621C508.456 93.8203 509.543 93.0249 510.808 92.4759C512.074 91.927 513.48 91.6525 515.026 91.6525C517.155 91.6525 518.953 92.0334 520.421 92.7952C521.888 93.557 523.025 94.6045 523.832 95.9376C524.638 97.2595 525.115 98.7663 525.26 100.458H519.379C519.356 99.5393 519.199 98.7719 518.908 98.1558C518.617 97.5284 518.158 97.0579 517.53 96.7442C516.903 96.4305 516.068 96.2737 515.026 96.2737C514.298 96.2737 513.665 96.4081 513.127 96.677C512.59 96.9459 512.142 97.3716 511.783 97.9541C511.425 98.5367 511.156 99.2929 510.977 100.223C510.808 101.141 510.724 102.25 510.724 103.55V104.911C510.724 106.211 510.803 107.32 510.96 108.238C511.117 109.157 511.369 109.908 511.716 110.49C512.063 111.073 512.511 111.504 513.06 111.784C513.62 112.053 514.304 112.187 515.11 112.187C516.007 112.187 516.763 112.047 517.379 111.767C517.995 111.476 518.471 111.039 518.807 110.457C519.143 109.863 519.323 109.107 519.345 108.188Z" fill="white"/>
<path d="M547.262 109.969C547.262 109.588 547.206 109.247 547.094 108.944C546.982 108.63 546.775 108.339 546.472 108.07C546.17 107.801 545.733 107.533 545.162 107.264C544.602 106.984 543.862 106.692 542.944 106.39C541.868 106.031 540.832 105.628 539.835 105.18C538.838 104.721 537.947 104.189 537.163 103.584C536.379 102.967 535.757 102.25 535.298 101.433C534.838 100.604 534.609 99.6401 534.609 98.5423C534.609 97.4892 534.844 96.5426 535.314 95.7023C535.785 94.8509 536.44 94.1283 537.28 93.5346C538.132 92.9296 539.129 92.4703 540.272 92.1566C541.414 91.8318 542.663 91.6693 544.019 91.6693C545.811 91.6693 547.391 91.983 548.758 92.6104C550.136 93.2265 551.211 94.1059 551.984 95.2486C552.768 96.3801 553.16 97.7189 553.16 99.2648H547.296C547.296 98.6487 547.167 98.1054 546.909 97.6348C546.663 97.1643 546.288 96.7946 545.783 96.5258C545.279 96.2569 544.646 96.1224 543.885 96.1224C543.145 96.1224 542.523 96.2345 542.019 96.4585C541.515 96.6826 541.134 96.9851 540.877 97.366C540.619 97.7357 540.49 98.1446 540.49 98.5927C540.49 98.9624 540.591 99.2985 540.793 99.6009C541.005 99.8922 541.302 100.167 541.683 100.424C542.075 100.682 542.546 100.928 543.095 101.164C543.655 101.399 544.282 101.629 544.977 101.853C546.276 102.267 547.43 102.732 548.439 103.247C549.458 103.752 550.315 104.329 551.01 104.978C551.715 105.617 552.247 106.345 552.606 107.163C552.976 107.981 553.16 108.905 553.16 109.936C553.16 111.033 552.948 112.008 552.522 112.86C552.096 113.711 551.486 114.434 550.69 115.027C549.895 115.61 548.943 116.052 547.834 116.355C546.724 116.657 545.487 116.809 544.12 116.809C542.865 116.809 541.627 116.652 540.406 116.338C539.196 116.013 538.098 115.52 537.112 114.859C536.127 114.187 535.337 113.33 534.743 112.288C534.16 111.235 533.869 109.986 533.869 108.541H539.784C539.784 109.258 539.88 109.863 540.07 110.356C540.26 110.849 540.54 111.246 540.91 111.549C541.28 111.84 541.734 112.053 542.271 112.187C542.809 112.311 543.425 112.372 544.12 112.372C544.87 112.372 545.475 112.266 545.935 112.053C546.394 111.829 546.73 111.538 546.943 111.179C547.156 110.809 547.262 110.406 547.262 109.969Z" fill="white"/>
<path d="M575.941 103.752V104.743C575.941 106.614 575.678 108.294 575.152 109.784C574.636 111.263 573.902 112.529 572.95 113.582C571.998 114.624 570.872 115.425 569.573 115.985C568.273 116.534 566.839 116.809 565.271 116.809C563.691 116.809 562.246 116.534 560.935 115.985C559.636 115.425 558.504 114.624 557.541 113.582C556.588 112.529 555.849 111.263 555.322 109.784C554.807 108.294 554.549 106.614 554.549 104.743V103.752C554.549 101.881 554.807 100.2 555.322 98.7103C555.849 97.2203 556.583 95.9544 557.524 94.9125C558.476 93.8595 559.602 93.0585 560.901 92.5095C562.212 91.9494 563.657 91.6693 565.237 91.6693C566.805 91.6693 568.239 91.9494 569.539 92.5095C570.85 93.0585 571.981 93.8595 572.933 94.9125C573.886 95.9544 574.625 97.2203 575.152 98.7103C575.678 100.2 575.941 101.881 575.941 103.752ZM569.959 104.743V103.718C569.959 102.508 569.853 101.444 569.64 100.525C569.438 99.5953 569.136 98.8167 568.732 98.1894C568.329 97.562 567.83 97.0915 567.237 96.7778C566.654 96.4529 565.988 96.2905 565.237 96.2905C564.453 96.2905 563.769 96.4529 563.187 96.7778C562.604 97.0915 562.117 97.562 561.725 98.1894C561.333 98.8167 561.036 99.5953 560.834 100.525C560.644 101.444 560.549 102.508 560.549 103.718V104.743C560.549 105.942 560.644 107.006 560.834 107.936C561.036 108.854 561.333 109.633 561.725 110.272C562.128 110.91 562.621 111.392 563.204 111.717C563.797 112.042 564.486 112.204 565.271 112.204C566.021 112.204 566.688 112.042 567.27 111.717C567.853 111.392 568.34 110.91 568.732 110.272C569.136 109.633 569.438 108.854 569.64 107.936C569.853 107.006 569.959 105.942 569.959 104.743ZM559.07 90.7955L563.758 87.1322H566.514L571.236 90.7955H567.556L565.136 88.8462L562.733 90.7955H559.07ZM570.009 88.8126L572.95 84.1914H577L572.967 88.8126H570.009Z" fill="white"/>
</svg>
